<svg width="25" height="25" viewBox="0 0 25 25" fill="none" xmlns="http://www.w3.org/2000/svg">
  <path
    d="M21.4286 2.08334H3.56682C2.74837 2.08334 2.08337 2.75763 2.08337 3.58538V21.4146C2.08337 22.2424 2.74837 22.9167 3.56682 22.9167H21.4286C22.2471 22.9167 22.9167 22.2424 22.9167 21.4146V3.58538C22.9167 2.75763 22.2471 2.08334 21.4286 2.08334ZM8.37988 19.9405H5.29208V9.99814H8.38453V19.9405H8.37988ZM6.83598 8.64026C5.84546 8.64026 5.04561 7.83575 5.04561 6.84989C5.04561 5.86403 5.84546 5.05953 6.83598 5.05953C7.82184 5.05953 8.62634 5.86403 8.62634 6.84989C8.62634 7.8404 7.82649 8.64026 6.83598 8.64026V8.64026ZM19.9545 19.9405H16.8667V15.1042C16.8667 13.9509 16.8434 12.4675 15.2623 12.4675C13.6533 12.4675 13.4068 13.723 13.4068 15.0205V19.9405H10.3191V9.99814H13.2813V11.356H13.3231C13.737 10.5748 14.7461 9.75168 16.2482 9.75168C19.3732 9.75168 19.9545 11.8118 19.9545 14.4903V19.9405V19.9405Z"
    fill="white" />
</svg>